/* XPM */
static char * xlock_xpm[] = {
"64 64 99 2",
"  	c #000000",
". 	c #383838",
"+ 	c #B1B18E",
"@ 	c #D8D8AF",
"# 	c #E8E8BB",
"$ 	c #F6F6C6",
"% 	c #FDFDCD",
"& 	c #F7F7C7",
"* 	c #E5E5E5",
"= 	c #8F8F8F",
"- 	c #898989",
"; 	c #F4F4F4",
"> 	c #FFFFCE",
", 	c #FFCE9C",
"' 	c #B4B4B4",
") 	c #ADADAD",
"! 	c #FDFDFD",
"~ 	c #828282",
"{ 	c #A4A484",
"] 	c #FFFFFF",
"^ 	c #101010",
"/ 	c #9C4A4A",
"( 	c #CE9C63",
"_ 	c #CECECE",
": 	c #CDCDCD",
"< 	c #1C1C1C",
"[ 	c #F1F1C2",
"} 	c #DDDDDD",
"| 	c #767676",
"1 	c #636331",
"2 	c #DFDFDF",
"3 	c #6C6C6C",
"4 	c #C5C5C5",
"5 	c #E1E1E1",
"6 	c #A2A2A2",
"7 	c #565656",
"8 	c #EEEEC0",
"9 	c #424242",
"0 	c #F8F8F8",
"a 	c #555555",
"b 	c #E8E8E8",
"c 	c #DEDEDE",
"d 	c #A5A5A5",
"e 	c #929292",
"f 	c #FAFAFA",
"g 	c #D1D1D1",
"h 	c #989898",
"i 	c #454545",
"j 	c #B2B2B2",
"k 	c #ECECEC",
"l 	c #FF6363",
"m 	c #630000",
"n 	c #F3F3F3",
"o 	c #CBCBCB",
"p 	c #727272",
"q 	c #787878",
"r 	c #F0F0F0",
"s 	c #FF0000",
"t 	c #8B8B8B",
"u 	c #5C5C5C",
"v 	c #F5F5F5",
"w 	c #C2C2C2",
"x 	c #E7E7E7",
"y 	c #D9D9D9",
"z 	c #E4E4E4",
"A 	c #FEFEFE",
"B 	c #D8D8D8",
"C 	c #D6D6D6",
"D 	c #BDBDBD",
"E 	c #AFAFAF",
"F 	c #D0D0D0",
"G 	c #5D5D5D",
"H 	c #FBFBFB",
"I 	c #F7F7F7",
"J 	c #B7B7B7",
"K 	c #D2D2D2",
"L 	c #737373",
"M 	c #D5D5D5",
"N 	c #838383",
"O 	c #EAEAEA",
"P 	c #CFCFCF",
"Q 	c #262626",
"R 	c #A3A3A3",
"S 	c #AAAAAA",
"T 	c #CACACA",
"U 	c #3B3B3B",
"V 	c #818181",
"W 	c #EBEBEB",
"X 	c #EFEFEF",
"Y 	c #8E8E8E",
"Z 	c #494949",
"` 	c #C4C4C4",
" .	c #A7A7A7",
"..	c #F1F1F1",
"+.	c #E3E3E3",
"@.	c #E9E9E9",
"#.	c #0D0D0D",
"$.	c #C0C0C0",
"%.	c #323232",
"                                                                                                                                ",
"                                                                                                                                ",
"                                                                                                                                ",
"                                                                                                                                ",
"                                                                                                                                ",
"                                                                                                                                ",
"                                                                                                                                ",
"                                                                                                                                ",
"                                                                                                                                ",
"                                                                                                                                ",
"                                                                                                                                ",
"                                                                                                                                ",
"                                                                                                                                ",
"                                                                                                                                ",
"                                                                                                                                ",
"                                                          . + @ # $ % & * =                                                     ",
"                                                        - ; > > > , , , , > '                                                   ",
"                                                      ) ! > > , , , , , , , > ~                                                 ",
"                                                    { ] ) ^ / , , / ^ / , ( _ :                                                 ",
"                                                  < [ > ^ ^ ^ , , ^ ^ ^ ( ( / }                                                 ",
"                                                  | > , / ^ / , , / ^ 1 ( / 1 2                                                 ",
"                                                  3 > , , , , , , , ( ( / 1 / 4                                                 ",
"                                                    5 , , , ( ( ( ( ( / 1 1 _ 6                                                 ",
"                                                    7 8 , ( ( ( / / 1 9 1 ) 0 a                                                 ",
"                                                      a b _ ( 1 9 1 1 ) c ] d                                                   ",
"                                                        e f ] 1 ) ] ] f g h                                                     ",
"                                                  i j k ] , l m m l , ] n o p                                                   ",
"                                                q r c ^ 1 / s s s s / ^ ) _ f t                                                 ",
"                                              u v ) 1 9 9 s s s s s m ^ 1 / ) _                                                 ",
"                                              w ) 9 1 ) / s s s s s s / > 1 ^ x                                                 ",
"                                              y 1 9 _ > l s s s s s m / > / 1 z                                                 ",
"                                              : ) 9 > > s s s s s s m m > 9 1 c                                                 ",
"                                              h A 9 ) c l s s s s s m 9 c 1 ) B                                                 ",
"                                                C ) 9 _ l s s s s m m / _ 1 D g                                                 ",
"                                                E D 9 ) ( s s s s m m ) _ 1 D F                                                 ",
"                                                G f ) D ] l s s m m / H I D c C                                                 ",
"                                                  G J K 0 1 / / / ^ _ K L M M N                                                 ",
"                                                        O ) 1 ] ] 9 _ g                                                         ",
"                                                        O 1 1 ] ] 9 ) P                                                         ",
"                                                        O 9 ) ] ] 1 ) _                                                         ",
"                                                Q ~ R S n 1 ) ] c ) 1 ; y T ' U                                                 ",
"                                              V W c c ) 9 ^ 9 ) D 9 ^ 1 _ c c X ~                                               ",
"                                            Y ! c _ _ ^ ^ ^ ^ ^ 9 ^ ^ ^ 9 _ _ c ; Z                                             ",
"                                            T c _ _ D 1 ^ ^ ^ 1 ) 9 ^ 9 ) D _ _ c E                                             ",
"                                            ` c _ _ D D D ) ) ) ) ) ) D D D _ _ c  .                                            ",
"                                            L H c _ _ _ D ) D D D ) D D _ _ _ c ..9                                             ",
"                                              L +.c c c c c _ _ D _ c c c c c @.3                                               ",
"                                                #.V  .$._ B +.x x x x x z K ' %.                                                ",
"                                                                                                                                ",
"                                                                                                                                ",
"                                                                                                                                ",
"                                                                                                                                ",
"                                                                                                                                ",
"                                                                                                                                ",
"                                                                                                                                ",
"                                                                                                                                ",
"                                                                                                                                ",
"                                                                                                                                ",
"                                                                                                                                ",
"                                                                                                                                ",
"                                                                                                                                ",
"                                                                                                                                ",
"                                                                                                                                ",
"                                                                                                                                "};
